<?xml version="1.0" ?><svg id="Layer_1" style="enable-background:new -50 164.9 493.4 512;" version="1.1" viewBox="-50 164.9 493.4 512" xml:space="preserve" xmlns="http://www.w3.org/2000/svg" xmlns:xlink="http://www.w3.org/1999/xlink"><style type="text/css">
	.st0{fill:#79A1E8;}
	.st1{fill:#473CBA;}
	.st2{fill:#7693DD;}
	.st3{fill:#FFFFFF;}
	.st4{fill:#CFDDF7;}
	.st5{fill:#4B31AA;}
	.st6{fill:#D7ECF9;}
	.st7{fill:none;}
	.st8{fill:#FBB03B;}
	.st9{fill:#F9D015;}
</style><g id="_x31_8-Setting"><path class="st0" d="M414.3,410.7c111.5,96.7-125.7,279.8-230.9,176.2C45.8,451.4-29.2,552.3-29.2,404.6s20.4-110,176.2-176.2   C282.8,170.7,280.5,294.7,414.3,410.7z"/><ellipse class="st1" cx="132.8" cy="672.2" rx="53.6" ry="4.7"/><path class="st2" d="M363.3,603.1l-16.5-35.1l20.3-35l53.6,0.1l0-13.8l-54.2-15.7c-27.5,0-51,17.2-60.4,41.4l-237.4-0.3   c-9.3-24.3-32.7-41.5-60.3-41.6l-54.2,15.6l0,13.8l52.4,0.1l20.2,35.1l-15.4,35l-57.2-13.9l0,17.5c11.5,17.8,31.5,26.8,54.2,26.8   c27.5,0,54.1-14.4,67.4-42.4l223.1,0.3c12.6,29.8,37.9,42.5,65.4,42.5c22.7,0,44.8-12.6,56.3-30.4l0-13.8L363.3,603.1z"/><path class="st3" d="M306,577.2L68.6,577c-9.3,24.3-32.8,41.5-60.4,41.4c-22.7,0-42.7-11.8-54.2-29.6l57.3,0.1l20.3-35l-20.2-35.1   l-57.3-0.1c11.5-17.7,31.5-29.5,54.2-29.5c27.5,0,51,17.3,60.3,41.6l237.4,0.3c9.3-24.3,32.8-41.5,60.4-41.4   c22.7,0,42.7,11.8,54.2,29.6l-57.3-0.1l-20.3,35l20.2,35.1l57.3,0.1c-11.5,17.7-31.5,29.5-54.2,29.5   C338.7,618.8,315.3,601.5,306,577.2z"/><path class="st4" d="M343.1,554.2l20.3-35l57.3,0.1c-11.5-17.8-31.4-29.6-54.2-29.6c-27.5,0-51,17.2-60.4,41.4l-25.4,0l-46.1,46.1   l71.4,0.1c9.3,24.3,32.7,41.5,60.3,41.6c22.7,0,42.7-11.7,54.2-29.5l-57.3-0.1L343.1,554.2z"/><path class="st5" d="M284.6,558.2C284.6,558.2,284.6,558.2,284.6,558.2L90.1,558c-2.2,0-4.1-1.8-4-4.1c0-2.2,1.8-4,4.1-4   c0,0,0,0,0,0l194.5,0.2c2.2,0,4.1,1.8,4,4.1C288.7,556.4,286.8,558.2,284.6,558.2z"/><path class="st5" d="M420.6,537.2L420.6,537.2c1.1,0,2.1-0.4,2.9-1.2c0.8-0.8,1.2-1.8,1.2-2.9l0-13.8c0,0,0,0,0,0   c0-0.8-0.2-1.5-0.6-2.2c-12.7-19.7-34.2-31.4-57.6-31.4c0,0-0.1,0-0.1,0c-27.3,0-52.2,16.5-63,41.4l-231.9-0.3   c-10.7-25-35.7-41.6-63-41.6c0,0-0.1,0-0.1,0c-23.3,0-44.8,11.7-57.6,31.3c-0.4,0.7-0.6,1.4-0.6,2.2c0,0,0,0,0,0l0,13.8   c0,1.1,0.4,2.1,1.2,2.9c0.8,0.8,1.8,1.2,2.9,1.2l50.1,0.1L20.5,565L9,584.8l-54.9-0.1c0,0,0,0,0,0c-1.5,0-2.8,0.8-3.6,2.1   c-0.3,0.6-0.5,1.3-0.5,1.9c0,0,0,0,0,0l0,17.5c0,0.8,0.2,1.5,0.6,2.2c11.8,18.2,32.7,28.6,57.6,28.7h0.1   c29.8,0,56.3-16.2,69.8-42.4l218,0.2c12.5,27.4,36.6,42.5,68.1,42.5h0.1c23.5,0,46.9-12.6,59.6-32.2c0.4-0.7,0.7-1.4,0.7-2.2   l0-13.8c0,0,0,0,0,0c0-0.6-0.2-1.3-0.5-1.9c-0.7-1.3-2.1-2.1-3.6-2.1l-54.9-0.1l-11.8-20.5l15.6-27.7L420.6,537.2z M10.1,530.6   c-0.7-1.3-2.1-2-3.5-2l-48.4-0.1l0-5.7l50.9,0.1l17.9,31l-1.7,3L10.1,530.6z M416.5,601.1l0,0.9c-11.3,16.5-32.1,27.5-52.2,27.5   h-0.1c-28.9,0-50.9-14.2-61.7-40c-0.6-1.5-2.1-2.5-3.7-2.5l-223.1-0.3h0c-1.6,0-3,0.9-3.7,2.3c-11.9,25.1-35.7,40-63.6,40H8.2   c-21.9,0-39.7-8.5-50.1-24l0-4.5C-29,614.4-11,622.4,8.3,622.5c0,0,0.1,0,0.1,0c27.3,0,52.2-16.5,63-41.4l231.9,0.3   c10.7,25,35.7,41.6,63,41.6c0,0,0.1,0,0.1,0C385.6,622.9,403.6,614.9,416.5,601.1z M363.3,593.4l49.2,0.1   c-11.4,13.5-28.2,21.4-46.1,21.4c0,0,0,0-0.1,0c-24.9,0-47.6-15.7-56.5-39c-0.6-1.6-2.1-2.6-3.8-2.6l-237.4-0.3c0,0,0,0,0,0   c-1.7,0-3.2,1-3.8,2.6c-8.9,23.2-31.6,38.8-56.5,38.8c0,0,0,0-0.1,0c-18,0-34.7-7.9-46.2-21.5l49.2,0.1c0,0,0,0,0,0   c1.4,0,2.8-0.8,3.5-2l20.3-35c0.7-1.3,0.7-2.8,0-4.1l-20.2-35.1c-0.7-1.3-2.1-2-3.5-2l-49.2-0.1c11.4-13.5,28.2-21.4,46.1-21.4   c0,0,0,0,0.1,0c24.9,0,47.6,15.7,56.5,39c0.6,1.6,2.1,2.6,3.8,2.6l237.4,0.3c0,0,0,0,0,0c1.7,0,3.2-1,3.8-2.6   c8.9-23.2,31.6-38.8,56.5-38.8c0,0,0,0,0.1,0c18,0,34.7,7.9,46.2,21.5l-49.2-0.1c-1.4,0-2.8,0.8-3.5,2l-20.3,35   c-0.7,1.3-0.7,2.8,0,4.1l20.2,35.1C360.5,592.6,361.8,593.4,363.3,593.4z M367,529c-1.4,0-2.8,0.8-3.5,2l-14.6,25.2l-1.2-2l17.9-31   l50.9,0.1l0,5.7L367,529L367,529L367,529z"/><path class="st1" d="M322.9,256.7l-2.8-31.5h-32.2l-3.2,31.6c-4.3,0.9-8.5,2-12.5,3.4l-18.3-26.1L226,250.2l13.2,29.3   c-3.1,2.8-6.1,5.7-8.8,8.9l-29.6-13.8l-16.1,27.9l26.4,19c-1.3,3.9-2.4,8-3.3,12.2l-32.6,2.9v32.2l32.5,3.3c0.9,4.4,2,8.8,3.4,13   l-26.4,19l16.1,27.9l29.6-13.8c2.8,3.2,5.8,6.2,9,9L226,456.6l27.9,16.1l18.5-26.5c4,1.4,8.1,2.5,12.3,3.3l3.2,31.6h32.2l2.8-31.5   c4.4-0.8,8.6-2,12.8-3.4l18.4,25.5l27.9-16.1l-13.2-28.4c3.4-3,6.7-6.2,9.7-9.6l28.1,12.7l16.1-27.9l-25.2-17.7   c1.5-4.3,2.6-8.7,3.5-13.2l30.5-3.1v-32.2l-30.6-2.7c-0.8-4.2-2-8.3-3.3-12.3l25.2-17.7L406.4,276h-13.3l-14.8,12.7   c-3-3.4-6.1-6.6-9.5-9.5l13.1-28.1L354,234.9h-13.3L322.9,256.7z M306.7,383.9c-18.9,1.5-34.6-14.2-33.1-33.1   c1.2-14.9,13.2-27,28.1-28.1c18.9-1.5,34.6,14.2,33.1,33.1C333.7,370.6,321.6,382.7,306.7,383.9z"/><path class="st6" d="M418,368.7v-32.2l-30.6-2.7c-0.8-4.2-2-8.3-3.3-12.3l25.2-17.7L393.1,276L365,288.6c-3-3.4-6.1-6.6-9.5-9.5   l13.1-28.1l-27.9-16.1l-18.1,25.2c-4.2-1.4-8.6-2.6-13-3.4l-2.8-31.5h-32.2l-3.2,31.6c-4.3,0.9-8.5,2-12.5,3.4l-18.3-26.1   l-27.9,16.1l13.2,29.3c-3.1,2.8-6.1,5.7-8.8,8.9l-29.6-13.8l-16.1,27.9l26.4,19c-1.3,3.9-2.4,8-3.3,12.2l-32.6,2.9v32.2l32.5,3.3   c0.9,4.4,2,8.8,3.4,13l-26.4,19l16.1,27.9l29.6-13.8c2.8,3.2,5.8,6.2,9,9l-13.3,29.6l27.9,16.1l18.5-26.5c4,1.4,8.1,2.5,12.3,3.3   l3.2,31.6h32.2l2.8-31.5c4.4-0.8,8.6-2,12.8-3.4l18.4,25.5l27.9-16.1l-13.2-28.4c3.4-3,6.7-6.2,9.7-9.6l28.1,12.7l16.1-27.9   L384,384.9c1.5-4.3,2.6-8.7,3.5-13.2L418,368.7z M293.4,383.9c-18.9,1.5-34.6-14.2-33.1-33.1c1.2-14.9,13.2-27,28.1-28.1   c18.9-1.5,34.6,14.2,33.1,33.1C320.4,370.6,308.3,382.7,293.4,383.9z"/><path class="st5" d="M194.6,333.7c0.2-1,0.4-2,0.6-3l-20.3,1.8c-1.8,0.2-3.3,1.5-3.6,3.2L194.6,333.7z"/><path class="st5" d="M174.9,372.8l20.1,2c-0.2-0.9-0.4-1.9-0.6-2.8l-23.1-2.3C171.7,371.3,173.1,372.6,174.9,372.8z"/><line class="st7" x1="422.5" x2="409.2" y1="303.9" y2="303.9"/><line class="st7" x1="398.1" x2="384" y1="321" y2="321.5"/><line class="st7" x1="431.3" x2="418" y1="336.5" y2="336.5"/><path class="st5" d="M431.3,340.6H418c-2.2,0-4.1-1.8-4.1-4.1s1.8-4.1,4.1-4.1h13.3c2.2,0,4.1,1.8,4.1,4.1   C435.3,338.8,433.5,340.6,431.3,340.6z"/><line class="st7" x1="431.3" x2="418" y1="368.7" y2="368.7"/><path class="st5" d="M431.3,372.8H418c-2.2,0-4.1-1.8-4.1-4.1s1.8-4.1,4.1-4.1h13.3c2.2,0,4.1,1.8,4.1,4.1   C435.3,371,433.5,372.8,431.3,372.8z"/><line class="st7" x1="422.5" x2="407.7" y1="402.6" y2="402"/><line class="st7" x1="397.3" x2="384" y1="384.9" y2="384.9"/><line class="st7" x1="406.4" x2="393.1" y1="430.5" y2="430.5"/><line class="st7" x1="368.7" x2="355.4" y1="427.5" y2="427.5"/><line class="st7" x1="381.9" x2="368.6" y1="455.8" y2="455.8"/><path class="st5" d="M381.9,459.9h-13.3c-2.2,0-4.1-1.8-4.1-4.1s1.8-4.1,4.1-4.1h13.3c2.2,0,4.1,1.8,4.1,4.1   C386,458.1,384.2,459.9,381.9,459.9z"/><line class="st7" x1="354" x2="340.7" y1="471.9" y2="471.9"/><line class="st7" x1="253.9" x2="240.3" y1="472.7" y2="472.7"/><path class="st3" d="M97.4,408.2v-12.7l-12.1-1.1c-0.3-1.7-0.8-3.3-1.3-4.9l10-7l-6.4-11l-11.1,5c-1.2-1.3-2.4-2.6-3.8-3.8   l5.2-11.1l-11-6.4l-7.2,10c-1.7-0.6-3.4-1-5.2-1.4l-1.1-12.5H40.6l-1.3,12.5c-1.7,0.3-3.4,0.8-5,1.3l-7.3-10.3l-11,6.4l5.2,11.6   c-1.2,1.1-2.4,2.3-3.5,3.5l-11.7-5.5l-6.4,11l10.5,7.5c-0.5,1.6-1,3.2-1.3,4.8L-4,395.4v12.7l12.9,1.3c0.3,1.8,0.8,3.5,1.4,5.1   l-10.5,7.5l6.4,11l11.7-5.5c1.1,1.3,2.3,2.4,3.6,3.6L16.1,443l11,6.4l7.3-10.5c1.6,0.5,3.2,1,4.9,1.3l1.3,12.5h12.7l1.1-12.5   c1.7-0.3,3.4-0.8,5.1-1.3l7.3,10.1l11-6.4l-5.2-11.2c1.4-1.2,2.6-2.5,3.8-3.8l11.1,5l6.4-11l-10-7c0.6-1.7,1-3.4,1.4-5.2   L97.4,408.2z M48.1,414.2c-7.5,0.6-13.7-5.6-13.1-13.1c0.5-5.9,5.2-10.7,11.1-11.1c7.5-0.6,13.7,5.6,13.1,13.1   C58.7,408.9,54,413.7,48.1,414.2z"/><path class="st5" d="M53.4,456.8H40.6c-2.1,0-3.8-1.6-4-3.6l-0.9-8.9l-5.2,7.5c-1.2,1.7-3.5,2.2-5.3,1.2l-11-6.4   c-1.8-1-2.5-3.3-1.7-5.2l3.8-8.4l-8.3,3.9c-1.9,0.9-4.2,0.2-5.2-1.6l-6.4-11c-1-1.8-0.5-4.1,1.1-5.3l7.9-5.7l-9.7-1   c-2.1-0.2-3.6-1.9-3.6-4v-12.7c0-2.1,1.6-3.9,3.7-4l9.2-0.8l-7.4-5.4c-1.7-1.2-2.2-3.5-1.1-5.3l6.4-11c1.1-1.8,3.3-2.5,5.2-1.6   l8.3,3.8l-3.7-8.2c-0.9-1.9-0.1-4.1,1.7-5.2l11-6.4c1.8-1.1,4.1-0.5,5.3,1.2l5.2,7.4l0.9-9c0.2-2.1,2-3.6,4-3.6h12.7   c2.1,0,3.9,1.6,4,3.7l0.8,9.2l5.3-7.4c1.2-1.7,3.5-2.2,5.3-1.1l11,6.4c1.8,1.1,2.5,3.3,1.6,5.2l-3.8,8.2l8.2-3.7   c1.9-0.9,4.1-0.1,5.2,1.7l6.4,11c1.1,1.8,0.5,4.1-1.2,5.3l-6.9,4.8l8.4,0.7c2.1,0.2,3.7,1.9,3.7,4v12.7c0,2.1-1.6,3.8-3.6,4   l-8.9,0.9l7.4,5.2c1.7,1.2,2.2,3.5,1.2,5.3l-6.4,11c-1,1.8-3.3,2.5-5.2,1.7l-8.3-3.7l3.9,8.4c0.9,1.9,0.2,4.2-1.6,5.2l-11,6.4   c-1.8,1-4.1,0.5-5.3-1.1l-5.3-7.4l-0.8,9C57.2,455.2,55.5,456.8,53.4,456.8z M44.3,448.7h5.4l0.8-8.8c0.2-1.8,1.5-3.3,3.3-3.6   c1.5-0.3,3.1-0.7,4.5-1.2c1.7-0.6,3.5,0,4.6,1.5l5.1,7.1l4.6-2.7l-3.7-7.9c-0.8-1.6-0.3-3.6,1-4.8c1.2-1.1,2.4-2.2,3.4-3.4   c1.2-1.3,3.1-1.8,4.7-1l7.8,3.5l2.7-4.6l-6.9-4.9c-1.5-1-2.1-2.9-1.5-4.6c0.5-1.5,0.9-3.1,1.2-4.7c0.3-1.8,1.8-3.1,3.6-3.3l8.4-0.8   v-5.4l-8.4-0.7c-1.8-0.2-3.3-1.5-3.6-3.2c-0.3-1.5-0.7-2.9-1.2-4.4c-0.6-1.7,0-3.6,1.5-4.6l6.9-4.9l-2.7-4.6l-7.8,3.5   c-1.6,0.7-3.5,0.3-4.7-1c-1-1.2-2.2-2.3-3.4-3.4c-1.4-1.2-1.8-3.1-1-4.8l3.6-7.8l-4.6-2.7l-5,7c-1,1.4-2.9,2-4.6,1.5   c-1.5-0.5-3-0.9-4.6-1.2c-1.8-0.3-3.1-1.8-3.3-3.6l-0.8-8.8h-5.4l-0.9,8.9c-0.2,1.8-1.5,3.2-3.2,3.6c-1.5,0.3-3,0.7-4.4,1.2   c-1.7,0.6-3.6,0-4.6-1.5l-5.1-7.3l-4.6,2.7l3.7,8.3c0.7,1.6,0.3,3.5-1,4.7c-1.1,1-2.2,2-3.1,3.1c-1.2,1.4-3.1,1.8-4.8,1l-8.3-3.9   l-2.7,4.6l7.5,5.4c1.4,1,2,2.9,1.5,4.6c-0.5,1.4-0.9,2.8-1.2,4.3c-0.4,1.8-1.8,3.1-3.6,3.2l-9.2,0.8v5.4l9.2,0.9   c1.8,0.2,3.2,1.5,3.6,3.3c0.3,1.6,0.7,3.1,1.2,4.6c0.6,1.7,0,3.6-1.5,4.6l-7.5,5.4l2.7,4.6l8.3-3.9c1.6-0.8,3.6-0.4,4.8,1   c1,1.1,2.1,2.2,3.2,3.2c1.3,1.2,1.8,3.1,1,4.7l-3.8,8.4L26,444l5.2-7.4c1-1.5,2.9-2.1,4.6-1.5c1.4,0.5,2.9,0.9,4.4,1.2   c1.7,0.4,3.1,1.8,3.2,3.6L44.3,448.7z M47.1,418.3c-4.3,0-8.4-1.7-11.5-4.8c-3.4-3.4-5.1-8-4.7-12.8c0.6-7.9,7-14.2,14.9-14.9   c4.7-0.4,9.4,1.3,12.8,4.7c3.4,3.4,5.1,8,4.7,12.8c-0.6,7.9-7,14.2-14.9,14.9l0,0C48,418.2,47.5,418.3,47.1,418.3z M47.1,393.9   c-0.2,0-0.4,0-0.7,0c-3.9,0.3-7.1,3.5-7.4,7.4c-0.2,2.4,0.7,4.7,2.3,6.4c1.7,1.7,4,2.5,6.4,2.4l0,0c3.9-0.3,7.1-3.5,7.4-7.4   c0.2-2.4-0.7-4.7-2.3-6.4C51.3,394.8,49.2,393.9,47.1,393.9z"/><path class="st8" d="M158.8,647.6l-30.8,0c-12.7,0-23.1-10.3-23.1-23.1l-0.1-133.3c0-12.7,10.3-23.1,23.1-23.1l30.8,0   c12.7,0,23.1,10.3,23.1,23.1l0.1,133.3C181.9,637.3,171.6,647.6,158.8,647.6z"/><polygon class="st0" points="146.4,448.9 129.3,448.9 129.2,246.7 146.3,246.7  "/><polygon class="st3" points="134.4,448.9 117.3,448.9 117.2,246.7 134.3,246.7  "/><polygon class="st0" points="151.2,168.9 121.3,169 109.4,225.6 118.9,252.7 154.8,252.7 163.2,225.5  "/><polygon class="st3" points="138.9,169 109,169 97,225.6 106.6,252.7 142.5,252.7 150.9,225.5  "/><path class="st9" d="M137.7,647.7l-30.8,0c-12.7,0-23.1-10.3-23.1-23.1l-0.1-133.3c0-12.7,10.3-23.1,23.1-23.1l30.8,0   c12.7,0,23.1,10.3,23.1,23.1l0.1,133.3C160.8,637.3,150.5,647.7,137.7,647.7z"/><path class="st8" d="M86.3,587.1l0,39.8c0,10.5,8.6,19.1,19.1,19.1l33.8,0c10.5,0,19.1-8.6,19.1-19.1l-0.1-111.7L86.3,587.1z"/><path class="st5" d="M108.7,626.1c-2.2,0-4.1-1.8-4.1-4.1l-0.1-128.2c0-2.2,1.8-4.1,4.1-4.1c0,0,0,0,0,0c2.2,0,4.1,1.8,4.1,4.1   l0.1,128.2C112.7,624.3,110.9,626.1,108.7,626.1C108.7,626.1,108.7,626.1,108.7,626.1z"/><path class="st5" d="M134.3,626.1c-2.2,0-4.1-1.8-4.1-4.1l-0.1-128.2c0-2.2,1.8-4.1,4-4.1c0,0,0,0,0,0c2.2,0,4.1,1.8,4.1,4.1   l0.1,128.2C138.4,624.3,136.5,626.1,134.3,626.1C134.3,626.1,134.3,626.1,134.3,626.1z"/><rect class="st8" height="25.6" width="42.7" x="122" y="442.6"/><rect class="st9" height="25.6" width="42.7" x="100.9" y="442.6"/><path class="st4" d="M418,368.7v-32.2l-30.6-2.7c-0.8-4.2-2-8.3-3.3-12.3l25.2-17.7L393.1,276L365,288.6c-1.3-1.4-2.6-2.8-3.9-4.2   l-47.8,47.8c5.7,6.1,8.9,14.4,8.2,23.5c-1.2,14.9-13.2,27-28.1,28.1c-9.1,0.7-17.4-2.5-23.5-8.2l-47.8,47.8   c1.3,1.2,2.6,2.5,3.9,3.6l-13.3,29.6l27.9,16.1l18.5-26.5c4,1.4,8.1,2.5,12.3,3.3l3.2,31.6h32.2l2.8-31.5c4.4-0.8,8.6-2,12.8-3.4   l18.4,25.5l27.9-16.1l-13.2-28.4c3.4-3,6.7-6.2,9.7-9.6l28.1,12.7l16.1-27.9L384,384.9c1.5-4.3,2.6-8.7,3.5-13.2L418,368.7z"/><path class="st5" d="M109,164.9c-1.9,0-3.6,1.3-4,3.2l-11.9,56.6c-0.2,0.7-0.1,1.5,0.1,2.2l9.6,27.1c0.6,1.6,2.1,2.7,3.8,2.7   c0,0,0,0,0,0l6.5,0l0.1,181.8l-12.4,0c-1.1,0-2.1,0.4-2.9,1.2c-0.8,0.8-1.2,1.8-1.2,2.9l0,23.5c-3.4,1.3-6.5,3.4-9.1,6   c-5.1,5.1-7.9,11.9-7.9,19.2l0.1,133.3c0,7.2,2.8,14.1,8,19.2c5.1,5.1,11.9,7.9,19.2,7.9h0l51.9,0c15,0,27.1-12.2,27.1-27.1   l-0.1-133.3c0-7.2-2.8-14.1-8-19.2c-2.7-2.7-5.8-4.7-9.2-6l0-23.5c0-1.1-0.4-2.1-1.2-2.9c-0.8-0.8-1.8-1.2-2.9-1.2h0l-14.2,0   l-0.1-181.8l4.5,0c1.8,0,3.3-1.2,3.9-2.9l8.4-27.2c0.2-0.7,0.2-1.4,0.1-2l-12-56.6c-0.4-1.9-2-3.2-4-3.2h0L109,164.9z M160.6,446.6   l0,17.5l-13,0l0-17.5L160.6,446.6z M142.4,438.5l-3.9,0l-0.1-181.8l3.9,0L142.4,438.5z M159,225.3l-7.2,23.3l-3.8,0l6.7-21.9   c0.2-0.7,0.2-1.4,0.1-2l-11-51.7l4,0L159,225.3z M101.2,225.3l11-52.3l19.2,0l0,0l4.1,0l11.1,52.3l-7.2,23.3l-30,0L101.2,225.3z    M125.9,256.8L125.9,256.8l4.3,0l0.1,181.8l-9,0l-0.1-181.8L125.9,256.8z M139.5,446.6l0,17.5l-34.6,0l0-17.5L139.5,446.6z    M151.2,638c-3.6,3.6-8.4,5.6-13.4,5.6l-30.8,0h0c-5.1,0-9.8-2-13.4-5.6c-3.6-3.6-5.6-8.4-5.6-13.4l-0.1-133.3c0-10.5,8.5-19,19-19   l30.8,0h0c5.1,0,9.8,2,13.4,5.6c3.6,3.6,5.6,8.4,5.6,13.4l0.1,133.3C156.7,629.7,154.8,634.4,151.2,638z M158.8,643.6l-1.8,0   c5-5.1,7.8-11.9,7.8-19l-0.1-133.3c0-7.2-2.8-13.9-7.8-19l1.8,0h0c5.1,0,9.8,2,13.4,5.6c3.6,3.6,5.6,8.4,5.6,13.4l0.1,133.3   C177.8,635,169.3,643.6,158.8,643.6z"/><path class="st5" d="M431.6,332.5l-27.7-2.4c-0.5-2.3-1.2-4.7-1.9-6.9l22.7-15.9c1.7-1.2,2.2-3.5,1.2-5.3L409.9,274   c-0.7-1.3-2.1-2-3.5-2h-13.3c0,0,0,0,0,0c-0.5,0-1.1,0.1-1.6,0.3l-16.2,7.3c-0.5-0.5-1-1-1.5-1.5l11.8-25.4   c0.9-1.9,0.2-4.2-1.6-5.2l-27.9-16.1c-0.6-0.4-1.3-0.5-2-0.5h-13.3c-1.2,0-2.4,0.5-3.1,1.5l-11.5,14.1l-1.9-21.6   c-0.2-2.1-1.9-3.7-4-3.7h-13.3h-18.9h-13.3c-2.1,0-3.8,1.6-4,3.6l-2.3,22.8l-11.1-15.8c-0.8-1.1-2-1.7-3.2-1.7c0,0,0,0-0.1,0h-13.3   c-0.1,0-0.3,0-0.4,0c-0.6,0.1-1.1,0.2-1.6,0.5l-27.9,16.1c-1.8,1-2.5,3.3-1.7,5.2l12,26.6c-0.2,0.2-0.5,0.5-0.7,0.7l-17.8-8.3   c-0.5-0.2-1.1-0.4-1.6-0.4c0,0-0.1,0-0.1,0h-13.3c0,0-0.1,0-0.1,0c-1.4,0-2.7,0.8-3.4,2l-16.1,27.9c-1,1.8-0.5,4.1,1.1,5.3   l24.1,17.3c-0.7,2.2-1.3,4.5-1.8,6.8l-29.6,2.6c-2.1,0.2-3.7,1.9-3.7,4v32.2c0,2.1,1.6,3.8,3.6,4l29.5,3c0.6,2.6,1.3,5.2,2,7.7   L169,400.7c-1.7,1.2-2.2,3.5-1.1,5.3l16.1,27.9c0.7,1.2,2,1.9,3.3,2c0.1,0,0.2,0,0.2,0h13.3c0,0,0.1,0,0.1,0c0.5,0,1.1-0.1,1.6-0.4   l17.8-8.3c0.3,0.3,0.6,0.6,0.9,0.8L209,455c-0.9,1.9-0.1,4.1,1.7,5.2l27.9,16.1c0.3,0.1,0.5,0.3,0.8,0.3c0.3,0.1,0.6,0.2,0.9,0.2   h13.6c0,0,0,0,0.1,0c0.1,0,0.2,0,0.3,0c0,0,0.1,0,0.1,0c1.1-0.1,2.2-0.7,2.9-1.7l11.1-15.8l2.3,22.4c0.2,2.1,2,3.6,4,3.6h13.3h18.9   h13.3c2.1,0,3.9-1.6,4-3.7l2-22.9l11.3,15.6c0.8,1.1,2,1.7,3.2,1.7c0,0,0,0,0.1,0H354c0.1,0,0.1,0,0.2,0c0.6,0,1.3-0.2,1.8-0.5   l27.9-16.1c1.8-1.1,2.5-3.3,1.6-5.2l-11.9-25.7c0.6-0.5,1.1-1.1,1.7-1.6l16.2,7.3c0.5,0.2,1,0.3,1.6,0.4c0,0,0.1,0,0.1,0h13.3   c0.1,0,0.2,0,0.3,0c1.3-0.1,2.5-0.8,3.2-2l16.1-27.9c1.1-1.8,0.5-4.1-1.2-5.3l-22.7-15.9c0.8-2.6,1.5-5.2,2.1-7.8l27.5-2.8   c2.1-0.2,3.6-2,3.6-4v-32.2C435.3,334.4,433.7,332.7,431.6,332.5z M404.1,280l11.4,19.8h-4L400.1,280H404.1z M372.6,250.3l4.1,2.4   l-10.4,22.4h-4.4l10.4-22.3C372.6,252,372.7,251.1,372.6,250.3z M316.4,229.3l2.2,25.4c-1.8-0.5-3.5-1-5.3-1.4l-2.1-24.1   L316.4,229.3L316.4,229.3z M252.7,239.5l10.6,15.2c-0.9,0.3-1.9,0.5-2.8,0.8l-10.2-14.6L252.7,239.5z M252.7,467.4l-2.4-1.4   l10.4-14.9c0.9,0.3,1.9,0.6,2.8,0.8L252.7,467.4z M316.4,477.2h-5.2l2.1-24.1c1.8-0.4,3.5-0.9,5.3-1.3L316.4,477.2z M376.7,454.2   l-4.1,2.4c0.1-0.8,0.1-1.6-0.3-2.4l-10.5-22.6h4.4L376.7,454.2z M415.7,406.4l-10.9,18.9l-3.1-1.4l10.2-17.6L415.7,406.4z    M413.9,365.1l-26.8,2.7c-1.8,0.2-3.2,1.5-3.6,3.3c-0.8,4.3-1.9,8.5-3.3,12.6c-0.6,1.7,0,3.6,1.5,4.6l22.2,15.5l-12.4,21.5   l-24.7-11.1c-1.6-0.7-3.5-0.3-4.7,1c-2.9,3.3-6,6.4-9.3,9.2c-1.4,1.2-1.8,3.1-1,4.8l11.6,25l-21.5,12.4L325.7,444   c-1-1.4-2.9-2-4.6-1.5c-4,1.3-8.1,2.4-12.3,3.2c-1.8,0.3-3.1,1.8-3.3,3.6l-2.4,27.8h-24.8l-2.8-28c-0.2-1.8-1.5-3.2-3.2-3.6   c-4-0.8-8-1.9-11.8-3.2c-1.7-0.6-3.6,0-4.6,1.5l-16.4,23.4L217.9,455l11.8-26.2c0.7-1.6,0.3-3.5-1-4.7c-3-2.7-5.9-5.6-8.6-8.6   c-1.2-1.4-3.1-1.8-4.8-1l-26.2,12.2l-12.4-21.5l23.5-16.9c1.4-1,2-2.9,1.5-4.6c-1.4-4-2.5-8.2-3.3-12.4c-0.3-1.8-1.8-3.1-3.6-3.3   l-28.8-2.9v-24.8l28.9-2.5c1.8-0.2,3.3-1.5,3.6-3.2c0.8-3.9,1.9-7.9,3.1-11.7c0.6-1.7,0-3.6-1.5-4.6l-23.5-16.9l12.4-21.5   l26.2,12.2c1.6,0.8,3.6,0.4,4.8-1c2.6-3,5.5-5.9,8.5-8.5c1.3-1.2,1.7-3.1,1-4.7l-11.7-25.9l21.5-12.4l16.2,23.1   c1,1.5,2.9,2.1,4.6,1.5c3.9-1.3,8-2.4,12-3.3c1.7-0.4,3.1-1.8,3.2-3.6l2.8-28h24.8l2.4,27.8c0.2,1.8,1.5,3.3,3.3,3.6   c4.2,0.8,8.4,1.9,12.5,3.3c1.7,0.6,3.6,0,4.6-1.5l16-22.2l21.5,12.4l-11.5,24.7c-0.8,1.6-0.3,3.6,1,4.8c3.2,2.8,6.3,5.9,9.1,9.1   c1.2,1.3,3.1,1.8,4.7,1l24.7-11.1l12.4,21.5l-22.2,15.5c-1.5,1-2.1,2.9-1.5,4.6c1.3,3.8,2.4,7.8,3.2,11.8c0.4,1.8,1.8,3.1,3.6,3.2   l26.9,2.4L413.9,365.1L413.9,365.1z M396,375c-0.5,2-1,3.9-1.6,5.9h-4.9c0.5-1.8,1-3.6,1.4-5.4L396,375z M395.7,330.5l-5.1-0.4   c-0.4-1.6-0.8-3.1-1.2-4.7l4.8-0.2C394.8,326.9,395.3,328.7,395.7,330.5z M427.2,365.1l-5.2,0.5v-25.8l5.2,0.5V365.1z"/><path class="st5" d="M315.5,328.6c-7.2-7.2-17.2-10.9-27.4-10.1c-16.8,1.3-30.5,15-31.8,31.9c-0.8,10.2,2.9,20.2,10.1,27.4   c6.6,6.6,15.4,10.2,24.6,10.2c0.9,0,1.8,0,2.8-0.1c16.8-1.3,30.5-15,31.9-31.9C326.4,345.8,322.7,335.9,315.5,328.6z M264.4,351.1   c0.7-9.4,6.5-17.5,14.6-21.6c-5.3,5.6-8.8,12.9-9.4,21c-0.8,9.8,2.6,19.5,9.3,26.6c-2.5-1.3-4.8-2.9-6.8-4.9   C266.6,366.6,263.7,358.9,264.4,351.1z M317.5,355.4c-0.9,11.4-9.1,20.8-19.9,23.6c-4.6-1.2-8.8-3.5-12.2-7   c-5.5-5.5-8.3-13.2-7.7-21c0.9-11.4,9.1-20.8,19.9-23.6c4.6,1.2,8.8,3.6,12.2,7C315.3,339.9,318.1,347.6,317.5,355.4z"/><path class="st8" d="M291,409c-30.7,0-55.7-25-55.7-55.7s25-55.7,55.7-55.7s55.7,25,55.7,55.7C346.7,384,321.7,409,291,409z    M291,318.8c-19,0-34.4,15.5-34.4,34.4s15.5,34.4,34.4,34.4s34.4-15.5,34.4-34.4S310,318.8,291,318.8z"/></g><g id="Layer_1_1_"/></svg>