<?xml version="1.0" ?><svg id="Слой_1" style="enable-background:new 0 0 128 128;" version="1.1" viewBox="0 0 128 128" xml:space="preserve" xmlns="http://www.w3.org/2000/svg" xmlns:xlink="http://www.w3.org/1999/xlink"><style type="text/css">
	.st0{fill:#2D4552;}
	.st1{fill:#324D5B;}
	.st2{fill:#3F5E6D;}
	.st3{fill:#3DB39E;}
	.st4{fill:#EFC75E;}
	.st5{fill:#E4E7E7;}
	.st6{fill:#B6B9B9;}
	.st7{fill:#263A45;}
</style><g><path class="st0" d="M56,86v24c0,0,0,0,0,0v6c0,2.2,1.8,4,4,4h18c2.2,0,4-1.8,4-4v-2c0,0,0,0,0,0V86H56z M56,86h-8c4.4,0,8,3.6,8,8   V86z"/></g><path class="st1" d="M96,76v6c0,2.2-1.8,4-4,4H30c-2.2,0-4-1.8-4-4v-6H96z"/><path class="st0" d="M4,20h12c2.2,0,4,1.8,4,4v10c0,2.2-1.8,4-4,4H4c-2.2,0-4-1.8-4-4V24C0,21.8,1.8,20,4,20z"/><path class="st2" d="M14,8h82c3.3,0,6,2.7,6,6v62H14c-3.3,0-6-2.7-6-6V14C8,10.7,10.7,8,14,8z"/><path class="st3" d="M87,56c2.8,0,5,2.2,5,5c0,2.8-2.2,5-5,5c-2.8,0-5-2.2-5-5C82,58.2,84.2,56,87,56z"/><path class="st0" d="M85,19c3.9,0,7,3.1,7,7c0,3.9-3.1,7-7,7c-3.9,0-7-3.1-7-7C78,22.1,81.1,19,85,19z"/><path class="st4" d="M71,56c2.8,0,5,2.2,5,5c0,2.8-2.2,5-5,5c-2.8,0-5-2.2-5-5C66,58.2,68.2,56,71,56z"/><path class="st5" d="M85,18c3.9,0,7,3.1,7,7c0,3.9-3.1,7-7,7c-3.9,0-7-3.1-7-7C78,21.1,81.1,18,85,18z"/><path class="st0" d="M102,30h8v28h-8V30z"/><path class="st2" d="M120,24h2c3.3,0,6,2.7,6,6v28c0,3.3-2.7,6-6,6h-2c-3.3,0-10-6-10-6V30C110,30,116.7,24,120,24z"/><path class="st6" d="M85,18c-0.3,0-0.7,0-1,0.1V23c0,0.6,0.4,1,1,1c0.6,0,1-0.4,1-1v-4.9C85.7,18,85.3,18,85,18z"/><g><rect class="st7" height="4" width="26" x="56" y="102"/><rect class="st7" height="4" width="26" x="56" y="110"/><rect class="st7" height="4" width="26" x="56" y="86"/><path class="st7" d="M54.9,90H56v-4h-8C51,86,53.5,87.6,54.9,90z"/><rect class="st7" height="4" width="26" x="56" y="94"/></g><rect class="st0" height="4" width="70" x="26" y="76"/><path class="st5" d="M8,64h45c1.7,0,3-1.3,3-3c0-1.7-1.3-3-3-3H8V64z"/></svg>