<?xml version="1.0" ?><!DOCTYPE svg  PUBLIC '-//W3C//DTD SVG 1.1//EN'  'http://www.w3.org/Graphics/SVG/1.1/DTD/svg11.dtd'><svg height="256px" style="shape-rendering:geometricPrecision; text-rendering:geometricPrecision; image-rendering:optimizeQuality; fill-rule:evenodd; clip-rule:evenodd" version="1.1" viewBox="0 0 43165 43165" width="256px" xml:space="preserve" xmlns="http://www.w3.org/2000/svg" xmlns:xlink="http://www.w3.org/1999/xlink"><defs><style type="text/css">
   <![CDATA[
    .fil0 {fill:none}
    .fil2 {fill:#76AACF}
    .fil1 {fill:#92BFE0}
    .fil6 {fill:#ADD2ED}
    .fil4 {fill:#E4EFF7}
    .fil9 {fill:#E67C89}
    .fil5 {fill:#EFF4F7}
    .fil10 {fill:#F2E796}
    .fil8 {fill:#FA96A2}
    .fil3 {fill:#396182;fill-rule:nonzero}
    .fil7 {fill:#ADD2ED;fill-rule:nonzero}
   ]]>
  </style></defs><g id="Layer_x0020_1"><g id="_903148080"><polygon class="fil0" points="43165,0 0,0 0,43165 43165,43165 "/><g><path class="fil1" d="M33263 1411l0 0c1532,0 2784,1253 2784,2784l0 8366 -5568 0 0 -8366c0,-1531 1253,-2784 2784,-2784z"/><path class="fil2" d="M33858 1475c-622,518 -1020,1301 -1020,2174l0 8461 0 451 -2359 0 0 -8366c0,-1531 1253,-2784 2784,-2784l0 0c204,0 403,22 595,64z"/><path class="fil3" d="M33263 1011c874,0 1671,358 2249,936l1 -1c576,577 935,1373 935,2249l0 8366 0 400 -400 0 -5569 0 -401 0 0 -400 0 -8366c0,-874 359,-1670 936,-2248l0 -1c576,-577 1373,-935 2249,-935zm1684 1499c-431,-431 -1028,-699 -1684,-699 -655,0 -1252,269 -1684,701l-1 0c-431,431 -699,1027 -699,1683l0 7966 4768 0 0 -7966c0,-655 -268,-1251 -700,-1683l0 -2z"/><path class="fil4" d="M4014 1411l29249 0c-1531,0 -2784,1253 -2784,2784l0 8366 0 29193 -30078 0 0 -36729c0,-1991 1623,-3614 3613,-3614z"/><path class="fil5" d="M4014 3293l26615 0c377,-1092 1418,-1882 2634,-1882l-29249 0c-1990,0 -3613,1623 -3613,3614l0 1882c0,-1990 1623,-3614 3613,-3614z"/><path class="fil6" d="M1906 41754l27067 0c829,0 1506,-677 1506,-1506l0 -2040c0,830 -677,1506 -1506,1506l-27067 0c-829,0 -1505,-676 -1505,-1506l0 2040c0,829 676,1506 1505,1506z"/><path class="fil7" d="M22004 36016c-183,168 -468,157 -636,-26 -169,-183 -157,-469 26,-637l987 -907 0 -1 -223 -242 2078 -3139 0 0 6243 -5741 0 4574 -3964 3645 0 1 -3301 1808 -223 -242 -987 907z"/><path class="fil3" d="M4014 1011l29249 0 0 800c-655,0 -1252,269 -1684,701l-1 0c-431,431 -699,1027 -699,1683l0 8366 0 27687c0,523 -215,1000 -560,1346l1 1c-345,345 -822,559 -1347,559l-27067 0c-523,0 -999,-214 -1345,-559l-1 -1 -1 -1c-345,-345 -559,-822 -559,-1345l0 -35223c0,-1106 451,-2110 1178,-2836 727,-727 1731,-1178 2836,-1178zm27143 800l-27143 0c-884,0 -1688,361 -2270,944 -582,582 -943,1385 -943,2270l0 35223c0,305 123,582 323,781l1 1c200,200 476,324 781,324l27067 0c304,0 581,-125 781,-325l1 0c200,-199 323,-476 323,-781l0 -27687 0 -8366c0,-874 359,-1670 936,-2248l0 -1c46,-46 94,-91 143,-135z"/><path class="fil3" d="M6071 9617c-221,0 -400,-179 -400,-400 0,-221 179,-400 400,-400l12215 0c221,0 400,179 400,400 0,221 -179,400 -400,400l-12215 0z"/><path class="fil3" d="M5683 14012c-221,0 -400,-179 -400,-400 0,-221 179,-400 400,-400l4509 0c221,0 400,179 400,400 0,221 -179,400 -400,400l-4509 0zm6772 0c-221,0 -400,-179 -400,-400 0,-221 179,-400 400,-400l13643 0c221,0 400,179 400,400 0,221 -179,400 -400,400l-13643 0z"/><path class="fil3" d="M5683 18639c-221,0 -400,-180 -400,-400 0,-221 179,-401 400,-401l15758 0c221,0 400,180 400,401 0,220 -179,400 -400,400l-15758 0zm18500 0c-221,0 -401,-180 -401,-400 0,-221 180,-401 401,-401l1915 0c221,0 400,180 400,401 0,220 -179,400 -400,400l-1915 0z"/><path class="fil3" d="M5683 23265c-221,0 -400,-179 -400,-400 0,-221 179,-400 400,-400l8960 0c221,0 400,179 400,400 0,221 -179,400 -400,400l-8960 0zm11519 0c-221,0 -400,-179 -400,-400 0,-221 179,-400 400,-400l8896 0c221,0 400,179 400,400 0,221 -179,400 -400,400l-8896 0z"/><path class="fil3" d="M6023 27892c-221,0 -400,-179 -400,-400 0,-221 179,-401 400,-401l13224 0c221,0 401,180 401,401 0,221 -180,400 -401,400l-13224 0z"/><path class="fil3" d="M6166 32518c-221,0 -400,-179 -400,-400 0,-221 179,-400 400,-400l10207 0c221,0 401,179 401,400 0,221 -180,400 -401,400l-10207 0z"/><rect class="fil8" height="432" transform="matrix(-5.73584 5.27499 5.27497 5.73586 34589.5 19011.9)" width="1907"/><rect class="fil9" height="432" transform="matrix(-5.73584 5.27499 2.07556 2.25691 35971.8 20515.1)" width="1907"/><path class="fil3" d="M26199 31846c-163,149 -415,138 -565,-24 -149,-162 -139,-415 24,-564l10940 -10062c163,-149 415,-138 565,24 149,162 138,415 -24,564l-10940 10062zm8120 -13128c162,-149 415,-139 564,24 150,162 139,414 -23,564l-10941 10061c-162,150 -415,139 -564,-23 -149,-162 -139,-415 23,-564l10941 -10062z"/><polygon class="fil10" points="22626,33361 25928,31552 24746,30267 23649,29074 21571,32212 22098,32786 "/><path class="fil3" d="M22709 32861l2580 -1414 -837 -910 -752 -818 -1624 2453 316 344 317 345zm3410 -959l-3278 1796c-161,102 -376,78 -508,-67l-528 -574 -528 -574 0 0c-121,-132 -143,-334 -39,-491l2070 -3127c19,-31 42,-60 70,-85 163,-150 415,-139 565,23l1097 1193 1182 1285 -1 1c22,23 41,50 57,79 105,194 34,436 -159,541z"/><path class="fil3" d="M20728 34590c-162,149 -415,138 -564,-24 -150,-162 -139,-415 23,-564l1641 -1509c162,-150 415,-139 564,23 149,162 139,415 -23,564l-1641 1510z"/><path class="fil6" d="M34589 19012l5502 -5060c381,-350 980,-325 1331,56l1004 1092c351,381 326,980 -56,1331l-5501 5059 -2280 -2478z"/><path class="fil2" d="M42249 16542l-5380 4948 -735 -798 5502 -5060c381,-350 407,-948 56,-1331l734 799c448,487 257,1043 -177,1442z"/><path class="fil3" d="M34319 18718l5502 -5060c271,-249 620,-365 963,-351 343,14 682,159 932,431l1004 1091c250,272 366,621 351,963 -14,344 -159,683 -430,932l-5502 5060c-162,149 -415,139 -564,-23l-2279 -2479c-150,-162 -139,-415 23,-564zm6042 -4472l-5207 4790 1738 1890 5208 -4789c110,-101 168,-238 174,-376 6,-139 -41,-281 -142,-391l-1004 -1091c-101,-110 -238,-169 -376,-175 -139,-6 -281,41 -391,142z"/><path class="fil3" d="M41435 17183c-114,-188 -53,-433 135,-547 188,-114 433,-53 547,135l990 1629c100,165 66,374 -71,500l1 1 -5960 5481c-119,109 -286,133 -425,74l-1 1 -326 -137c-204,-85 -300,-320 -215,-524 86,-204 320,-299 524,-214l91 38 5531 -5086 -821 -1351z"/></g></g></g></svg>